<?xml version="1.0" encoding="UTF-8"?><svg id="Layer_1" xmlns="http://www.w3.org/2000/svg" viewBox="0 0 524.52 193.96"><defs><style>.cls-1{fill:#8ea50d;}.cls-1,.cls-2{stroke-width:0px;}.cls-2{fill:#fff;}</style></defs><rect class="cls-2" x="332.72" y="11.58" width="1.87" height="170.49"/><path class="cls-2" d="M274.74,112.4c0,3.78-.16,5.96-.28,7.07-.06.55-.52.96-1.07.96h-51.84c-.55,0-1.01-.41-1.07-.96-.12-1.11-.27-3.29-.27-7.07s.15-5.89.27-6.97c.06-.58.26-1.13.59-1.62l28.97-43.03h-27.31c-.55,0-1.01-.41-1.07-.96-.12-1.11-.27-3.29-.27-7.08s.16-5.97.27-7.09c.06-.55.52-.96,1.07-.96h48.69c.56,0,1.02.41,1.07.97.11,1.11.25,3.31.25,7.2,0,3.63-.14,5.75-.25,6.83-.06.59-.26,1.15-.58,1.64l-28.65,43.04h30.14c.55,0,1.01.41,1.07.96.12,1.11.28,3.29.28,7.07h0Z"/><path class="cls-2" d="M169.24,23.69v96.25c0,.56-.41,1.02-.97,1.07-1.3.12-4.03.29-8.96.29s-7.68-.17-8.98-.29c-.55-.05-.97-.52-.97-1.07V23.69c0-.56.41-1.02.97-1.07,1.3-.12,4.03-.29,8.97-.29s7.67.17,8.97.29c.55.05.97.51.97,1.07h0Z"/><path class="cls-1" d="M143.79,29.43c0,2.67-.11,4.38-.21,5.36-.05.51-.62.78-1.05.49l-10.13-6.81c-.34-.23-.79-.23-1.13,0l-10.13,6.81c-.42.29-1,.02-1.05-.49-.1-.98-.21-2.69-.21-5.36,0-3.01.13-4.71.23-5.6.06-.53.34-1,.76-1.33l10.34-7.95c.36-.28.87-.28,1.23,0l10.43,8.02c.36.28.59.68.64,1.13.11.86.25,2.6.25,5.72h0Z"/><path class="cls-2" d="M213.96,104.98c.6-.08,1.15.35,1.21.95.11,1.12.24,3.21.24,6.9s-.15,5.63-.26,6.67c-.06.57-.46,1.04-1.01,1.2-1.54.45-4.96,1.3-8.76,1.3s-7.36-.49-10.25-1.49c-2.89-1.01-5.27-2.54-7.19-4.62-1.89-2.07-3.27-4.69-4.17-7.85-.89-3.15-1.34-6.89-1.34-11.2v-36.04h-6.52c-.55,0-1.02-.41-1.07-.96-.11-1.11-.26-3.3-.26-7.09s.15-5.97.26-7.08c.06-.55.52-.96,1.07-.96h6.52v-16.9c0-.56.42-1.02.97-1.07,1.3-.11,4.02-.28,8.93-.28s7.62.16,8.91.28c.56.05.97.51.97,1.07v16.91s8.96,0,11.89.02c.54,0,.98.4,1.03.94.11,1.1.26,3.28.26,7.09s-.15,5.99-.26,7.09c-.05.54-.49.94-1.03.94-2.93,0-11.88.02-11.88.02v33.05c0,3.84.64,6.7,1.81,8.63,1.29,2.14,3.54,2.79,6.05,2.79,1.41,0,2.9-.16,3.87-.29h0Z"/><path class="cls-2" d="M113.73,104.98c.6-.08,1.15.35,1.21.95.11,1.12.24,3.21.24,6.9s-.15,5.63-.26,6.67c-.06.57-.46,1.04-1.01,1.2-1.55.45-4.96,1.3-8.76,1.3s-7.36-.49-10.25-1.49c-2.89-1.01-5.27-2.54-7.19-4.62-1.89-2.07-3.27-4.69-4.17-7.85-.89-3.15-1.34-6.89-1.34-11.2v-36.04h-6.52c-.55,0-1.02-.41-1.07-.96-.11-1.11-.26-3.3-.26-7.09s.15-5.97.26-7.08c.06-.55.52-.96,1.07-.96h6.52v-16.9c0-.56.42-1.02.97-1.07,1.3-.11,4.02-.28,8.93-.28s7.62.16,8.91.28c.55.05.97.51.97,1.07v16.91s8.96,0,11.89.02c.54,0,.98.4,1.03.94.11,1.1.26,3.28.26,7.09s-.15,5.99-.26,7.09c-.05.54-.49.94-1.03.94-2.93,0-11.87.02-11.87.02v33.05c0,3.84.64,6.7,1.81,8.63,1.29,2.14,3.54,2.79,6.05,2.79,1.41,0,2.9-.16,3.87-.29h0Z"/><path class="cls-2" d="M46.32,26.44c13.05,0,18.65,3.24,21.18,4.72.6.35.99.96,1.05,1.65.11,1.34.27,4.13.27,9.26,0,4.24-.11,6.87-.21,8.4-.05.81-.94,1.23-1.64.81-6.8-4.14-10.18-6.3-18.96-6.3s-12.88,4.86-12.88,8.1c0,9.96,14.55,10.38,27.7,17.72,11.33,6.32,13.74,12.84,13.74,22.16,0,10.64-3.15,29.04-36.19,29.04-9.91,0-19.19-3.49-22.39-4.83-.75-.31-1.24-1-1.3-1.8-.11-1.44-.25-4.19-.25-8.87,0-4.42.14-7.18.24-8.69.05-.73.81-1.18,1.49-.9,3.73,1.52,14.46,5.59,22.66,5.59,9.79,0,15.83-3.65,15.83-7.96,0-10.22-14.94-11.61-26.14-17.34-9.02-4.61-15.8-9.72-15.8-23.57,0-16.6,13.78-27.19,31.6-27.19h0Z"/><path class="cls-2" d="M141.78,45.79v74.15c0,.56-.41,1.02-.97,1.07-1.3.12-4.03.29-8.96.29s-7.68-.17-8.98-.29c-.55-.05-.97-.52-.97-1.07V45.79c0-.56.42-1.02.97-1.07,1.3-.12,4.03-.29,8.97-.29s7.67.17,8.97.29c.55.05.97.51.97,1.07h0Z"/><path class="cls-2" d="M263.61,31.4c0,.07,0,.14-.02.19,0,.05-.02.1-.03.13-.02.03-.04.06-.06.07-.03.01-.06.02-.08.02h-2.08v6.42s0,.06-.03.08c-.01.02-.04.04-.08.05-.04.01-.09.02-.15.03-.06,0-.14.01-.24.01s-.17,0-.24-.01c-.07-.01-.12-.02-.15-.03-.04-.01-.07-.03-.08-.05-.01-.02-.02-.05-.02-.08v-6.42h-2.09s-.05,0-.08-.02c-.02-.02-.04-.04-.06-.07-.02-.03-.03-.08-.04-.13,0-.05-.01-.11-.01-.19s0-.14.01-.19c0-.05.02-.1.04-.13.02-.04.03-.06.06-.08.03-.01.05-.02.08-.02h5.15s.06,0,.08.02c.02.02.04.04.06.08.01.03.03.08.03.13.01.05.02.12.02.19h0Z"/><path class="cls-2" d="M272.74,38.23s0,.06-.02.08c-.01.02-.04.04-.08.05-.04.01-.09.02-.15.03-.06,0-.14.01-.24.01-.09,0-.17,0-.23-.01-.07-.01-.12-.02-.15-.03-.04-.01-.07-.03-.08-.05-.02-.02-.03-.05-.03-.08v-6.45h-.01l-2.61,6.48s-.02.05-.05.07c-.02.02-.05.04-.09.05-.04.01-.09.02-.14.03-.05,0-.12,0-.2,0-.08,0-.15,0-.2-.01-.06,0-.11-.02-.14-.03-.04-.01-.07-.03-.09-.05-.02-.02-.04-.04-.04-.06l-2.49-6.48h0v6.45s0,.06-.02.08c-.02.02-.04.04-.08.05-.04.01-.09.02-.15.03-.07,0-.14.01-.25.01-.09,0-.17,0-.24-.01-.06-.01-.11-.02-.15-.03-.04-.01-.06-.03-.08-.05-.01-.02-.02-.05-.02-.08v-6.81c0-.16.04-.27.13-.34.09-.07.18-.1.29-.1h.6c.13,0,.23.01.32.03.09.02.17.06.24.11.07.05.13.11.18.19.05.08.09.17.12.27l2.12,5.36h.03l2.2-5.35c.04-.11.09-.21.14-.29.05-.08.1-.14.16-.19.06-.05.13-.08.2-.1.07-.02.16-.03.26-.03h.63c.05,0,.11,0,.16.03.05.02.1.04.14.08.03.04.07.08.09.14.02.06.03.12.03.2v6.81h0Z"/><path class="cls-1" d="M92.78,162.06c0-1.47-.14-2.85-.41-4.16-.27-1.31-.73-2.45-1.35-3.44-.63-.98-1.48-1.76-2.55-2.34-1.07-.57-2.41-.86-4.01-.86-1.48,0-2.75.26-3.82.78-1.06.52-1.94,1.26-2.63,2.21-.69.95-1.2,2.08-1.53,3.39-.33,1.31-.5,2.73-.5,4.28s.14,2.88.41,4.19c.27,1.31.73,2.45,1.37,3.42.64.98,1.49,1.75,2.57,2.32,1.07.57,2.41.86,4.01.86,1.46,0,2.73-.26,3.8-.78,1.07-.52,1.96-1.26,2.64-2.2.69-.94,1.2-2.07,1.52-3.37.33-1.31.49-2.74.49-4.31h0ZM97.93,161.73c0,2.21-.29,4.24-.87,6.1-.58,1.86-1.45,3.46-2.61,4.81-1.15,1.35-2.6,2.4-4.34,3.15-1.74.75-3.75,1.13-6.04,1.13s-4.17-.33-5.83-1c-1.66-.66-3.04-1.63-4.14-2.89-1.11-1.27-1.93-2.8-2.47-4.61-.54-1.81-.81-3.86-.81-6.15s.29-4.24.86-6.1c.57-1.86,1.44-3.46,2.59-4.81,1.15-1.35,2.6-2.39,4.32-3.13,1.73-.74,3.75-1.12,6.06-1.12s4.17.33,5.83.99c1.66.66,3.04,1.63,4.14,2.89,1.11,1.27,1.93,2.8,2.49,4.61.55,1.81.83,3.85.83,6.12h0Z"/><path class="cls-1" d="M142.87,175.59c0,.16-.04.3-.12.41-.08.11-.21.21-.39.29-.18.08-.43.14-.75.18-.32.04-.72.06-1.21.06s-.91-.02-1.23-.06c-.32-.04-.58-.1-.77-.18-.19-.08-.33-.18-.41-.29-.08-.11-.12-.25-.12-.41v-16.48c0-1.15-.1-2.19-.3-3.13-.2-.94-.52-1.76-.96-2.44-.44-.68-1.01-1.21-1.69-1.57-.68-.36-1.49-.54-2.41-.54-1.14,0-2.29.44-3.45,1.33-1.16.88-2.43,2.18-3.81,3.89v18.95c0,.16-.04.3-.12.41-.08.11-.22.21-.41.29-.19.08-.45.14-.77.18-.32.04-.72.06-1.21.06s-.86-.02-1.19-.06c-.33-.04-.59-.1-.78-.18-.19-.08-.32-.18-.39-.29-.07-.11-.11-.25-.11-.41v-16.48c0-1.15-.11-2.19-.33-3.13-.22-.94-.55-1.76-.99-2.44-.44-.68-1-1.21-1.67-1.57-.67-.36-1.47-.54-2.39-.54-1.15,0-2.3.44-3.46,1.33-1.17.88-2.43,2.18-3.8,3.89v18.95c0,.16-.04.3-.12.41-.08.11-.21.21-.39.29-.18.08-.43.14-.75.18-.32.04-.73.06-1.24.06s-.88-.02-1.21-.06c-.32-.04-.58-.1-.77-.18-.19-.08-.32-.18-.39-.29-.07-.11-.1-.25-.1-.41v-27.12c0-.16.03-.3.09-.41.06-.11.18-.21.36-.3.18-.09.41-.15.69-.18.28-.03.65-.04,1.12-.04s.81.02,1.1.04c.29.03.52.09.68.18.16.09.28.19.35.3.07.11.11.25.11.41v3.59c1.53-1.71,3.01-2.96,4.45-3.75,1.43-.79,2.89-1.19,4.35-1.19,1.13,0,2.13.13,3.03.39.89.26,1.68.63,2.37,1.1.68.47,1.27,1.03,1.75,1.69.48.65.88,1.38,1.21,2.18.9-.98,1.76-1.82,2.58-2.5.81-.68,1.6-1.24,2.35-1.66.75-.42,1.49-.73,2.2-.92.71-.19,1.43-.29,2.15-.29,1.75,0,3.21.31,4.4.92,1.19.61,2.14,1.43,2.88,2.46.73,1.02,1.25,2.23,1.57,3.6.31,1.38.47,2.83.47,4.35v17.14h0Z"/><path class="cls-1" d="M167.91,159.38c.06-2.61-.52-4.66-1.74-6.15-1.22-1.49-3.04-2.23-5.44-2.23-1.23,0-2.31.23-3.24.69-.93.46-1.71,1.08-2.34,1.84-.63.76-1.11,1.65-1.46,2.67-.34,1.01-.54,2.07-.58,3.18h14.8ZM172.91,160.86c0,.78-.2,1.34-.59,1.67-.39.33-.84.5-1.35.5h-17.86c0,1.51.15,2.86.45,4.07.3,1.21.81,2.24,1.51,3.1.71.86,1.63,1.53,2.75,1.99,1.13.46,2.51.69,4.15.69,1.29,0,2.44-.1,3.45-.32,1.01-.21,1.88-.45,2.62-.71.74-.26,1.34-.5,1.82-.71.47-.21.83-.32,1.07-.32.14,0,.27.03.38.11.11.07.2.18.26.32.06.14.1.34.14.59.03.25.04.56.04.92,0,.26-.01.49-.03.68-.02.19-.04.36-.08.51-.03.15-.08.29-.15.41-.07.12-.16.24-.27.35-.11.11-.44.29-.98.54-.54.25-1.24.5-2.11.74-.87.24-1.87.46-3,.65-1.14.19-2.35.29-3.63.29-2.23,0-4.18-.31-5.86-.93-1.68-.62-3.09-1.55-4.23-2.77-1.15-1.22-2.01-2.76-2.59-4.61-.58-1.85-.87-4-.87-6.45s.3-4.42.9-6.28c.6-1.86,1.47-3.43,2.61-4.73,1.13-1.3,2.5-2.29,4.11-2.98,1.61-.69,3.4-1.04,5.39-1.04,2.13,0,3.94.34,5.44,1.02,1.5.68,2.73,1.6,3.69,2.76.96,1.15,1.67,2.51,2.12,4.07.45,1.56.68,3.22.68,4.99v.9h0Z"/><path class="cls-1" d="M65.81,175.56c0,.16-.04.3-.12.42-.08.12-.22.22-.42.29-.2.07-.47.13-.8.18-.33.05-.74.08-1.22.08-.52,0-.94-.03-1.26-.08-.32-.05-.58-.11-.78-.18-.2-.07-.34-.17-.42-.29-.08-.12-.12-.26-.12-.42v-17.29h-17.74v17.29c0,.16-.04.3-.12.42-.08.12-.22.22-.42.29-.2.07-.47.13-.8.18-.33.05-.75.08-1.25.08s-.89-.03-1.23-.08c-.34-.05-.61-.11-.81-.18-.2-.07-.34-.17-.42-.29-.08-.12-.12-.26-.12-.42v-37.4c0-.16.04-.3.12-.42.08-.12.22-.22.42-.29.2-.07.47-.13.81-.18.34-.05.75-.08,1.23-.08s.92.02,1.25.08c.33.05.6.11.8.18.2.07.34.17.42.29.08.12.12.26.12.42v15.6h17.74v-15.6c0-.16.04-.3.12-.42.08-.12.22-.22.42-.29.2-.07.46-.13.78-.18.32-.05.74-.08,1.26-.08.48,0,.89.02,1.22.08.33.05.6.11.8.18.2.07.34.17.42.29.08.12.12.26.12.42v37.4h0Z"/><path class="cls-1" d="M182.97,175.57c0,.16-.04.3-.12.41-.08.11-.21.21-.39.29-.18.08-.43.14-.75.18-.32.04-.73.06-1.24.06s-.88-.02-1.21-.06c-.32-.04-.58-.1-.77-.18-.19-.08-.32-.18-.39-.29-.07-.11-.1-.25-.1-.41v-40.26c0-.16.04-.3.1-.42.07-.12.2-.22.39-.3.19-.08.45-.14.77-.18.32-.04.72-.06,1.21-.06s.91.02,1.24.06c.32.04.57.1.75.18.18.08.31.18.39.3.08.12.12.26.12.42v40.26h0Z"/><path class="cls-1" d="M195.12,175.57c0,.16-.04.3-.12.41-.08.11-.21.21-.39.29-.18.08-.43.14-.75.18-.32.04-.73.06-1.24.06s-.88-.02-1.21-.06c-.32-.04-.58-.1-.77-.18-.19-.08-.32-.18-.39-.29-.07-.11-.1-.25-.1-.41v-27.12c0-.14.04-.27.1-.39.07-.12.2-.22.39-.3.19-.08.45-.14.77-.18.32-.04.72-.06,1.21-.06s.91.02,1.24.06c.32.04.57.1.75.18.18.08.31.18.39.3.08.12.12.25.12.39v27.12h0ZM195.69,139.29c0,1.17-.22,1.96-.66,2.38-.44.42-1.25.63-2.44.63s-1.96-.21-2.39-.62c-.43-.41-.65-1.19-.65-2.34s.22-1.96.66-2.38c.44-.42,1.26-.63,2.44-.63s1.96.21,2.39.62c.43.41.65,1.19.65,2.34h0Z"/><path class="cls-1" d="M256.65,168.18c0,1.39-.26,2.62-.77,3.71-.51,1.08-1.24,2-2.19,2.74-.94.74-2.07,1.31-3.37,1.69-1.31.38-2.74.57-4.31.57-.96,0-1.88-.08-2.76-.23-.87-.15-1.66-.34-2.35-.57-.69-.23-1.28-.47-1.76-.72-.48-.25-.83-.48-1.05-.68-.22-.2-.38-.48-.48-.84-.1-.36-.15-.85-.15-1.48,0-.38.02-.7.06-.96.04-.26.09-.47.15-.63.06-.16.14-.28.26-.35.11-.07.24-.11.38-.11.22,0,.55.14.98.41.43.27.97.57,1.6.89.63.32,1.38.62,2.25.89.86.27,1.86.41,2.98.41.84,0,1.61-.09,2.29-.27.68-.18,1.27-.45,1.78-.8.5-.35.89-.8,1.16-1.34.27-.54.41-1.18.41-1.93s-.2-1.41-.59-1.93c-.39-.52-.91-.98-1.55-1.39-.64-.4-1.37-.76-2.17-1.07-.8-.31-1.63-.64-2.48-.98-.86-.34-1.69-.73-2.5-1.16-.81-.43-1.54-.96-2.19-1.58-.64-.62-1.16-1.37-1.55-2.23-.39-.86-.59-1.9-.59-3.1,0-1.07.21-2.08.62-3.06.41-.97,1.03-1.83,1.85-2.56.82-.73,1.85-1.32,3.09-1.76,1.24-.44,2.68-.66,4.32-.66.72,0,1.45.06,2.17.18.72.12,1.38.27,1.96.45.58.18,1.08.38,1.49.59.41.21.72.4.94.56.21.16.35.3.42.42.07.12.12.26.15.41.03.15.06.34.09.56.03.22.04.49.04.81,0,.34-.02.64-.04.89-.03.25-.08.46-.15.62-.07.16-.16.28-.26.35-.1.07-.21.11-.33.11-.18,0-.44-.11-.78-.33-.34-.22-.78-.46-1.33-.71-.54-.25-1.18-.49-1.91-.71-.73-.22-1.57-.33-2.51-.33-.85,0-1.59.1-2.23.29-.64.19-1.17.46-1.58.81-.41.35-.72.77-.93,1.25-.21.48-.32,1-.32,1.57,0,.78.2,1.44.6,1.97.4.53.92,1,1.57,1.4.64.4,1.37.76,2.2,1.09.82.32,1.66.65,2.52.99.85.34,1.7.72,2.53,1.15.84.42,1.57.93,2.22,1.54.64.6,1.16,1.33,1.55,2.17.39.84.59,1.85.59,3.01h0Z"/><path class="cls-1" d="M217.93,137.17c0,.38-.02.69-.06.92-.04.23-.09.42-.14.56-.05.14-.12.24-.2.29-.08.05-.18.08-.3.08-.14,0-.32-.04-.53-.14-.21-.09-.47-.19-.77-.3-.3-.11-.66-.21-1.07-.3-.41-.09-.89-.14-1.44-.13-.75,0-1.38.12-1.9.36-.52.24-.95.62-1.27,1.13-.32.51-.55,1.18-.69,1.99-.14.82-.21,1.81-.21,2.98v2.96s5.17,0,5.17,0c.16,0,.3.04.41.1.11.07.21.19.3.36.09.17.16.39.21.65.05.26.08.58.08.97,0,.73-.09,1.25-.27,1.57-.18.32-.42.48-.73.48h-5.16s.02,23.85.02,23.85c0,.16-.04.3-.12.41-.08.11-.22.21-.41.29-.19.08-.45.14-.77.18-.32.04-.73.06-1.21.06-.48,0-.89-.02-1.21-.06-.32-.04-.58-.1-.77-.18-.19-.08-.33-.18-.41-.29-.08-.11-.12-.25-.12-.41l-.02-23.85h-3.84c-.32,0-.56-.16-.72-.48-.16-.32-.24-.85-.24-1.57,0-.38.02-.7.06-.97.04-.26.1-.48.18-.65.08-.17.18-.29.3-.36.12-.07.26-.11.42-.11h3.84s0-2.81,0-2.81c0-1.89.17-3.52.52-4.88.35-1.36.89-2.47,1.61-3.34.72-.87,1.64-1.51,2.73-1.92,1.1-.41,2.39-.62,3.88-.62.71,0,1.39.06,2.06.19.66.13,1.18.27,1.54.42.36.15.61.29.73.41.12.12.22.28.3.47.08.19.14.42.17.7.03.27.05.6.05.98h0Z"/><path class="cls-1" d="M235.13,173.55c0,.58-.04,1.05-.12,1.39-.08.34-.2.6-.36.76-.16.16-.4.31-.72.45-.32.14-.69.26-1.1.35-.41.09-.85.17-1.31.23-.46.06-.93.09-1.39.09-1.41,0-2.62-.19-3.63-.56-1.01-.37-1.83-.93-2.48-1.69-.64-.76-1.11-1.71-1.41-2.87-.29-1.16-.44-2.52-.44-4.09l-.02-15.9h-3.51c-.3,0-.54-.16-.73-.48-.18-.32-.27-.85-.27-1.57,0-.38.02-.7.08-.97.05-.26.11-.48.2-.65.08-.17.19-.29.32-.36.13-.07.28-.11.44-.11h3.48s0-6.47,0-6.47c0-.14.04-.27.11-.39.07-.12.2-.23.39-.32.19-.09.45-.16.77-.2.32-.04.72-.06,1.21-.06.5,0,.92.02,1.24.06.32.04.57.1.76.2.18.09.31.2.39.32.08.12.12.25.12.39v6.47s6.99,0,6.99,0c.16,0,.3.03.42.1.12.07.23.19.32.36.09.17.16.39.2.65.04.26.06.58.06.97,0,.73-.09,1.25-.27,1.57-.18.32-.42.48-.72.48h-6.98s.01,15.18.01,15.18c0,1.87.28,3.29.84,4.25.55.96,1.55,1.43,2.98,1.43.46,0,.88-.05,1.24-.14.36-.09.68-.19.97-.29.28-.1.52-.2.72-.29.2-.09.38-.14.54-.14.1,0,.2.03.29.08.09.05.16.15.21.29.05.14.1.33.14.57.04.24.06.54.06.91h0Z"/><path class="cls-2" d="M491.9,72.93c-.95-2.3-2.51-4.01-4.66-5.19-2.21-1.22-4.65-1.68-7.14-1.82-1.1-.06-2.2-.03-3.31.05-1.6.12-3.19.34-4.76.65-2.4.48-4.71,1.21-6.97,2.11-1.83.73-3.6,1.56-5.33,2.51-1.03.57-2.05,1.15-3.04,1.78-1.91,1.23-3.77,2.53-5.55,3.96-1.51,1.21-2.97,2.46-4.37,3.78-1.09,1.03-2.15,2.1-3.16,3.21-1.07,1.17-2.11,2.37-3.12,3.59-1.23,1.5-2.38,3.06-3.48,4.66-1.35,1.95-2.55,3.98-3.68,6.07-.09.17-.15.25-.36.12-2.05-1.19-4.02-2.51-5.9-3.97-1.66-1.28-3.23-2.66-4.77-4.07-1.17-1.08-2.27-2.23-3.33-3.42-.26-.29-.53-.57-.79-.87-1.14-1.34-2.26-2.7-3.41-4.04-.95-1.12-1.8-2.32-2.69-3.48-.84-1.1-1.53-2.31-2.38-3.41-1.2-1.57-2.19-3.28-3.27-4.92-.66-1.01-1.25-2.06-1.89-3.08-1.29-2.02-2.46-4.1-3.59-6.21-1.19-2.23-2.08-4.62-3.56-6.68-.55-.77-1.11-1.55-1.94-2.07-.78-.49-1.22-.33-1.53.55-.25.73-.31,1.48-.35,2.23-.06,1.08.05,2.15.25,3.22.24,1.27.45,2.55.84,3.79.49,1.58,1.09,3.12,1.69,4.66.41,1.04.81,2.07,1.35,3.04.57,1.03,1.13,2.06,1.74,3.06.83,1.35,1.61,2.73,2.45,4.08.88,1.42,1.94,2.72,2.96,4.04.84,1.08,1.74,2.12,2.61,3.17.71.85,1.43,1.7,2.15,2.56-.05.01-.09.03-.11.02-.8-.67-1.64-1.3-2.39-2.02-1.52-1.45-3-2.95-4.55-4.38-1.77-1.64-3.43-3.4-5.17-5.06-1.08-1.03-2.08-2.13-3.33-2.95-.76-.49-1.44-.87-2.14-.19v1.28s.08.05.08.08c.06.8.38,1.54.62,2.29.44,1.37,1.15,2.63,1.88,3.87,1.37,2.37,3.01,4.55,4.88,6.54.96,1.02,1.91,2.05,2.96,2.99,1.37,1.23,2.79,2.39,4.21,3.56,1.75,1.44,3.62,2.71,5.48,4,.59.41,1.21.77,1.82,1.16-.66-.11-1.24-.42-1.82-.71-1.71-.85-3.4-1.74-5.09-2.62-1.11-.57-2.25-1.1-3.33-1.72-2.33-1.36-4.63-2.79-6.96-4.15-.44-.26-.84-.59-1.34-.73-.5-.14-1.01.06-1.07.5-.05.3-.07.63.04.94.56,1.57,1.35,3.02,2.51,4.22.98,1.02,1.99,2.02,3.07,2.95.96.82,1.94,1.61,2.99,2.32,1.6,1.07,3.24,2.07,4.91,3.03,1.53.88,3.05,1.78,4.69,2.41,2.14.82,4.19,1.86,6.38,2.55-.51.07-1.04.02-1.51-.09-1.6-.38-3.22-.6-4.83-.89-1.79-.32-3.55-.8-5.33-1.23-1.16-.28-2.35-.4-3.55-.41-.49,0-.8.34-.83.82-.05.79.49,1.24,1,1.66,1.5,1.22,3.16,2.19,4.86,3.09,1.19.63,2.42,1.18,3.69,1.63.51.18,1.02.36,1.55.47,1.12.23,2.25.47,3.37.71,1.05.22,2.1.48,3.16.64,1.01.16,2.04.21,3.15.31-.47.12-.83.24-1.19.41-.41.2-.62.59-.65.94-.03.35.24.68.66.84,1.54.58,3.07,1.15,4.7,1.43.23.04.4.11.36.39-.04.3-.09.59-.09.89,0,1.69-.03,3.38.16,5.07.16,1.36.37,2.7.69,4.02.54,2.2,1.31,4.31,2.43,6.29,1.14,2.02,2.53,3.83,4.27,5.39,1.65,1.47,3.49,2.6,5.51,3.49,2.84,1.25,5.84,1.78,8.91,1.93,2.07.1,4.15,0,6.21-.33,1.63-.26,3.23-.63,4.81-1.1,2.85-.85,5.56-2.02,8.17-3.42,1.36-.73,2.69-1.51,3.98-2.35,2.2-1.43,4.3-2.98,6.32-4.65,1.39-1.15,2.71-2.37,4.02-3.6.72-.67,1.38-1.4,2.04-2.13.41-.45.76-.95,1.16-1.41.15-.17.12-.3-.03-.42-.67-.5-1.21-1.14-1.81-1.72-.13-.12-.23-.16-.39-.03-1.12.94-2.24,1.88-3.36,2.81-1,.83-1.98,1.68-3.01,2.45-1.5,1.12-3,2.24-4.58,3.24-1.94,1.23-3.95,2.31-6.08,3.15-2.53,1-5.17,1.48-7.87,1.57-.8.03-1.61-.08-2.42-.16-1.24-.12-2.45-.38-3.63-.74-2.11-.64-4.02-1.67-5.67-3.14-1.39-1.24-2.45-2.73-3.23-4.43-.95-2.07-1.33-4.24-1.45-6.48-.07-1.34.03-2.68.18-4.02.06-.54.19-1.08.26-1.62.02-.15.05-.19.2-.22,1.04-.2,2.09-.39,3.11-.65,2.51-.64,5.02-1.29,7.49-2.09,1.82-.59,3.63-1.22,5.43-1.9,2.29-.86,4.54-1.81,6.75-2.85,1.63-.77,3.24-1.59,4.82-2.47,1.49-.83,2.95-1.71,4.37-2.65,1.98-1.31,3.88-2.71,5.67-4.28,1.4-1.22,2.73-2.51,3.98-3.89,1.32-1.45,2.53-2.99,3.55-4.67.97-1.59,1.94-3.18,2.71-4.89.89-1.98,1.51-4.04,1.64-6.19.14-2.16.07-4.32-.78-6.39ZM457.48,109.64c.53-.37,1.07-.74,1.6-1.11,1.14-.8,2.27-1.62,3.3-2.57.78-.72,1.68-1.3,2.42-2.07.18-.18.49-.39.27-.66-.21-.25-.51-.08-.75.08-1.14.79-2.25,1.62-3.42,2.36-1.42.91-2.83,1.83-4.33,2.62-1.53.81-3.07,1.6-4.64,2.31-1.28.58-2.63,1-3.89,1.6-1.76.83-3.6,1.4-5.45,1.97-1.56.48-3.16.81-4.76,1.11-1.23.24-2.46.38-3.72.47-1.46.1-2.91.04-4.36.05-.65,0-1.31-.13-1.96-.2.06-.11.16-.15.29-.16.99-.06,1.98-.08,2.97-.19,1.17-.12,2.34-.19,3.5-.42.79-.16,1.6-.18,2.39-.3,1.28-.2,2.54-.46,3.76-.91.22-.08.39-.22.53-.42-.23-.2-.46-.2-.76-.17-.9.08-1.79.28-2.68.41-1,.14-1.99.31-2.99.44-.56.07-1.12.14-1.69.19-1.95.19-3.91.3-5.87.28-.44,0-.89-.05-1.37-.22.86-.24,1.68-.35,2.5-.42,1.45-.12,2.9-.16,4.34-.35.99-.13,2-.16,2.99-.29.83-.11,1.66-.27,2.48-.47,3.6-.88,7.18-1.86,10.68-3.09.29-.1.56-.26.85-.35.22-.07.25-.23.2-.39-.06-.18-.21-.31-.42-.26-1.16.31-2.33.61-3.48.95-.83.25-1.68.41-2.53.59-1.52.31-3.03.61-4.56.89-.99.18-1.98.33-2.98.48-1.33.19-2.67.28-4.01.39-1.64.13-3.29.21-4.93.15-1.22-.05-2.43-.15-3.65-.17-2.28-.05-4.5-.48-6.72-.98-1.36-.3-2.73-.59-4.05-1.04-1.41-.47-2.86-.87-4.19-1.72.52-.01.93.2,1.36.32,1.95.51,3.89,1.02,5.87,1.4,1.61.31,3.23.58,4.85.82.81.12,1.65.09,2.46.2,1.26.17,2.53.21,3.79.35,1.51.16,3.03.16,4.54.08,1.08-.06,2.17.02,3.24-.16.29-.05.66-.14.69-.45.02-.25-.34-.3-.58-.4-.15-.06-.29-.06-.44-.06-1.58,0-3.16,0-4.75,0-1.55,0-3.08-.27-4.63-.29-.95-.01-1.91-.14-2.85-.27-1.6-.21-3.2-.42-4.79-.7-2.53-.44-4.98-1.11-7.4-1.94-.35-.12-.67-.28-1.03-.51.63-.15,1.12.15,1.63.27,1.29.3,2.6.5,3.9.78,1.37.29,2.75.56,4.12.8.76.13,1.53.2,2.3.3.82.11,1.64.24,2.47.35.54.07,1.08.02,1.62.09,1.13.14,2.26.23,3.4.3,1.9.13,3.8.22,5.71.16,1.23-.04,2.47-.11,3.7-.19.92-.06,1.83-.3,2.75-.47.77-.14,1.54-.27,2.3-.43.25-.05.5-.17.74-.28.18-.08.07-.27.08-.4.02-.17-.13-.13-.22-.14-.76-.08-1.49.12-2.23.21-.68.08-1.36.12-2.03.24-1.48.26-2.98.22-4.47.18-1.53-.04-3.07-.09-4.58-.28-2.23-.29-4.43-.75-6.58-1.48-1.45-.49-2.94-.89-4.39-1.41-2.02-.73-4.05-1.45-6-2.37-1.27-.6-2.55-1.19-3.81-1.83-2.35-1.2-4.57-2.61-6.68-4.18-.87-.65-1.73-1.34-2.39-2.21,1.47.96,2.95,1.93,4.42,2.89,1.84,1.2,3.81,2.13,5.79,3.08,1.53.73,3.1,1.4,4.66,2.05,2.67,1.11,5.33,2.25,8.16,2.96,1.6.4,3.19.89,4.8,1.28.47.11.94.24,1.41.33.22.04.44-.04.52-.26.08-.22-.07-.36-.26-.47-.63-.33-1.31-.5-1.99-.67-2.17-.56-4.29-1.3-6.41-2.02-2.22-.76-4.38-1.65-6.52-2.6-2.05-.92-4.08-1.88-6.07-2.92-2.04-1.07-3.98-2.29-5.79-3.72-.6-.47-1.21-.95-1.79-1.46.57.19,1.05.57,1.55.87,1.23.72,2.45,1.45,3.69,2.15,1.27.71,2.52,1.46,3.85,2.05,2.33,1.03,4.57,2.24,6.99,3.07,1.56.54,3.04,1.31,4.61,1.81,2.95.95,5.91,1.88,8.89,2.76,1.62.48,3.28.81,4.94,1.13.32.06.66,0,.97-.09.18-.05.33-.18.33-.35,0-.14-.15-.22-.3-.28-.78-.33-1.6-.47-2.41-.67-2.04-.52-4.04-1.2-6.03-1.91-1.63-.58-3.22-1.24-4.78-1.98-1.62-.77-3.18-1.65-4.67-2.65-1.65-1.11-3.33-2.17-4.97-3.29-1.46-1-2.92-2.01-4.32-3.09-1.51-1.17-2.93-2.44-4.41-3.65-1.45-1.18-2.76-2.51-4.15-3.75-2.17-1.93-3.7-4.32-5.28-6.69-.08-.12-.14-.26-.2-.39-.01-.02,0-.06.02-.13.57.65,1.06,1.33,1.59,1.97.52.63,1.04,1.26,1.57,1.89.84,1,1.77,1.91,2.72,2.81,1.23,1.17,2.5,2.28,3.8,3.37,1.68,1.42,3.42,2.77,5.15,4.13,1.4,1.11,2.81,2.2,4.33,3.16,1.29.82,2.5,1.76,3.83,2.53,1.09.64,2.2,1.24,3.29,1.88.57.33,1.15.64,1.81.77.1.02.2.04.31.05.12,0,.25.01.32-.11.09-.16-.08-.21-.15-.29-.48-.56-1.12-.93-1.75-1.28-1.73-.95-3.24-2.2-4.88-3.27-1.43-.93-2.85-1.89-4.2-2.94-1.22-.95-2.47-1.86-3.65-2.85-1.13-.95-2.26-1.9-3.39-2.85-.51-.43-.96-.91-1.48-1.33-1.29-1.06-2.39-2.31-3.52-3.53-1.24-1.33-2.41-2.74-3.59-4.13-.3-.36-.59-.75-.76-1.2.13-.06.18,0,.23.05.58.55,1.16,1.1,1.74,1.65,1.32,1.26,2.64,2.54,3.97,3.78.67.62,1.28,1.29,1.96,1.9,1.45,1.3,2.89,2.62,4.37,3.89,1.03.89,2.02,1.84,3.08,2.69,1.32,1.05,2.66,2.08,4.03,3.06,1.52,1.08,2.97,2.25,4.51,3.29,1.38.94,2.79,1.85,4.29,2.61,1.01.51,1.96,1.12,2.99,1.6,1.39.65,2.85,1.14,4.27,1.72.76.31,1.54.56,2.31.84.07.02.12.08.2.07.22-.03.52.11.59-.25.06-.31-.17-.44-.4-.53-1.59-.69-3.2-1.37-4.73-2.18-2.42-1.28-4.73-2.74-6.97-4.31-1.36-.96-2.66-1.98-3.95-3.03-1.43-1.16-2.76-2.42-4.06-3.71-.92-.9-1.87-1.77-2.77-2.69-1.09-1.11-2.18-2.23-3.21-3.39-2.14-2.43-4.25-4.88-5.94-7.66-.86-1.42-1.79-2.8-2.55-4.28-.56-1.1-1.22-2.15-1.76-3.25-1.05-2.18-1.79-4.48-2.49-6.79-.27-.88-.55-1.76-.76-2.66-.07-.31-.2-.63-.11-1.03.59,1.68,1.21,3.29,1.9,4.87.46,1.05,1.02,2.05,1.56,3.06.52.98,1.1,1.94,1.61,2.93.52.99,1.15,1.91,1.7,2.88.77,1.35,1.55,2.7,2.42,3.99,1.27,1.88,2.58,3.75,4.02,5.51,1.03,1.26,2.08,2.51,3.2,3.71,1.31,1.41,2.64,2.8,4,4.17.47.48.85,1.06,1.35,1.5.79.69,1.58,1.4,2.48,1.95.14.08.29.26.48.1.2-.18.05-.36-.02-.53-.19-.43-.49-.78-.82-1.1-1.19-1.17-2.4-2.32-3.58-3.5-1.19-1.2-2.26-2.51-3.32-3.83-1-1.25-2.05-2.47-3.01-3.76-1.56-2.09-3.08-4.21-4.42-6.45-1.38-2.31-2.62-4.69-3.94-7.03-1.28-2.28-2.24-4.7-3.19-7.13-.29-.74-.62-1.45-.86-2.21-.03-.09-.04-.17-.02-.27.55.59.83,1.32,1.13,2.03.55,1.32,1.27,2.55,1.93,3.81.75,1.45,1.6,2.84,2.45,4.23.83,1.35,1.6,2.74,2.42,4.09.75,1.24,1.53,2.48,2.31,3.7,1.2,1.86,2.53,3.63,3.86,5.4.79,1.05,1.51,2.16,2.35,3.17.8.95,1.55,1.93,2.36,2.86,2.17,2.49,4.55,4.78,6.87,7.13.98.99,2.12,1.8,3.18,2.7,1.66,1.4,3.5,2.56,5.38,3.63,1.93,1.11,3.92,2.12,6.06,2.79,1.94.61,3.85,1.34,5.84,1.77,1.06.23,2.12.39,3.19.53,1.51.2,3.01.19,4.52.16,1.19-.02,2.38-.16,3.56-.34,1.39-.21,2.76-.48,4.11-.83,1.85-.48,3.64-1.09,5.41-1.82,1.43-.59,2.83-1.22,4.18-1.95,2.46-1.32,4.84-2.79,7.08-4.48,1.05-.79,2.04-1.64,3.03-2.5.09-.08.21-.14.35-.23-1.75,3.68-16.42,15.44-21.18,16.92ZM480.52,81.8c-.39,1.42-.94,2.78-1.62,4.07-.87,1.64-1.89,3.19-3.07,4.64-.93,1.13-1.89,2.23-2.96,3.22-1.91,1.76-3.96,3.35-6.19,4.68-.83.5-1.65,1.03-2.52,1.45-2.28,1.1-4.64,1.95-7.12,2.47-1.2.25-2.42.43-3.64.56-1.45.16-2.89.22-4.34.14-.77-.04-1.56.01-2.35-.22.61-1.54,1.13-3.14,1.78-4.69.78-1.85,1.6-3.68,2.52-5.47,1.45-2.81,3.06-5.52,4.88-8.11,1.15-1.64,2.37-3.23,3.69-4.74,1.15-1.33,2.36-2.6,3.65-3.79,2.05-1.89,4.28-3.55,6.83-4.72,1.34-.61,2.73-1.05,4.21-1.21,1.12-.13,2.18-.06,3.23.35,1.23.48,2.09,1.36,2.7,2.49.55,1.02.81,2.13.93,3.29.21,1.92-.11,3.76-.62,5.59Z"/><path class="cls-2" d="M457.47,13.04c0,.84,0,1.67,0,2.51,0,.26.06.34.32.33.41-.02.82,0,1.23-.01.22,0,.29.06.28.28-.02.41.13.92-.07,1.19-.19.26-.73.07-1.12.08-.64.01-.64,0-.64.64,0,.72-.19,1.54.93,1.61,1.98,1.07,2.24,3.83.92,5.28-1.05,1.15-2.32,1.52-3.75,1.03-1.22-.42-2.1-1.33-2.28-2.66-.25-1.82.54-3.16,2.27-3.87.22-.09.27-.18.27-.38,0-.53.18-1.21-.08-1.55-.24-.32-.96-.09-1.47-.09-.29,0-.4-.07-.37-.37.03-.32.01-.64,0-.96,0-.23.09-.33.32-.32.44,0,.88,0,1.32,0,.22,0,.28-.06.28-.28-.01-.82,0-1.64,0-2.46h1.64Z"/><path class="cls-2" d="M455.19,41.99c0-.69-.15-1.31-.23-1.93-.07-.51-.15-1.02-.22-1.54-.02-.12.04-.2.13-.27.81-.62,1.54-1.33,2.31-2.01.64.69,1.38,1.31,1.97,2.06.11.14.18.27.16.44-.09.95-.18,1.89-.35,2.83-.03.15,0,.3,0,.52.41-.37.74-.78,1.21-1.01.7-.34,1.4-.43,2.13-.11.62.27.82.82.93,1.4.22,1.11-.02,2.18-.36,3.23-.21.66-.47,1.29-.8,1.9-.15.29-.32.45-.67.42-.5-.03-1,0-1.51,0,.26-.72.54-1.42.6-2.17.03-.39.07-.82-.45-.97-.5-.15-.83.18-1.05.51-.73,1.12-.63,2.9.76,3.65,1.02.56,2.46.46,3.46-.31.95-.73,1.36-1.79,1.65-2.89.2-.72.31-1.47.46-2.2.03-.17,0-.3-.22-.27-.15.02-.3,0-.46,0-.61,0-.63,0-.59-.59.03-.44.11-.88.18-1.32.03-.2.2-.18.36-.19,1.04-.04,1-.05,1.11-1.09.1-1,.3-1.99.44-2.99.03-.19.08-.22.24-.22.56,0,1.13.02,1.69,0,.3-.02.29.15.26.33-.1.63-.22,1.25-.32,1.88-.11.61-.21,1.22-.31,1.84-.04.22,0,.4.29.34.07-.01.15,0,.23,0q.92,0,.75.91c-.01.06-.07.11-.07.16-.04.32.11.75-.2.91-.26.14-.66.06-.99.03-.36-.03-.44.07-.5.44-.08.46-.11.93-.12,1.37-.02,1.23.07,2.49,1,3.44.58.59,1.37.83,2.19.76.71-.06,1.42-.24,2-.72.8-.66,1.44-2.25.82-3.32-.15-.26-.34-.45-.62-.41-.29.04-.57.18-.67.5-.17.51-.12,1.04-.07,1.56,0,.03.04.05.04.08.2.85.05,1.04-.81,1.04-.76,0-.75,0-1.01-.77-.38-1.13-.52-2.3-.43-3.48.06-.84.29-1.66.92-2.29.97-.96,2.56-1,3.51.26.32.42.6.87.91,1.34.18-.53.16-1.06.2-1.58.04-.51.09-.93.63-1.18,1.28-.62,2.54-1.27,3.91-1.96-.42,1.23-.81,2.34-1.19,3.45-.96,2.79-1.91,5.59-2.88,8.38-.52,1.51-1.08,3-1.6,4.51-.13.37-.31.74-.38,1.12-.07.42-.26.52-.67.52-10.33-.01-20.66-.01-30.99,0-.41,0-.58-.11-.72-.52-.98-2.72-2-5.43-3.01-8.15-1.1-2.96-2.2-5.92-3.31-8.88-.04-.11.02-.25-.11-.34.57.13,1.05.44,1.55.69.97.49,1.93,1,2.91,1.48.26.13.35.27.37.57.05.69.16,1.37.26,2.13.35-.56.51-1.11.83-1.59.53-.77,1.06-.88,2.03-.66,1.35.31,1.92,1.33,2.15,2.57.27,1.47.11,2.9-.54,4.26-.08.18-.19.2-.35.2-.4,0-.79-.03-1.19,0-.36.03-.33-.19-.29-.39.14-.79.14-1.56-.08-2.34-.11-.38-.38-.49-.68-.54-.28-.05-.43.2-.53.45-.68,1.66.46,3.85,2.41,4.03.91.08,1.68-.07,2.39-.64.59-.48.87-1.13,1.04-1.83.28-1.13.21-2.28.02-3.42-.03-.2-.15-.15-.26-.16-.35,0-.7,0-1.05,0-.15,0-.24,0-.26-.2-.04-.5-.08-1.01-.19-1.5-.06-.27.02-.31.24-.3.36,0,.73,0,1.09,0-.14-1.06-.27-2.1-.41-3.14-.04-.28-.1-.55-.16-.83-.05-.21-.05-.34.24-.33.53.02,1.06.01,1.6,0,.26,0,.31.11.35.35.19,1.24.43,2.48.62,3.72.03.22.12.23.28.23.15,0,.3,0,.46,0,.71,0,.72,0,.82.66.04.23.05.47.09.71.1.64.08.64-.58.64-.26,0-.51,0-.78,0,.13.8.23,1.56.37,2.31.21,1.12.49,2.22,1.38,3.04.86.8,2.42.95,3.45.36,1.11-.63,1.53-1.6,1.47-2.83-.04-.74-.65-1.29-1.4-1.25-.41.02-.67.29-.7.71-.06.79.21,1.51.47,2.3-.64,0-1.26,0-1.87,0-.2,0-.25-.16-.29-.29-.42-1.16-.82-2.32-.97-3.56-.09-.72-.13-1.42.09-2.12.44-1.4,1.99-1.42,2.95-.81.37.23.69.54,1.08.85Z"/><path class="cls-2" d="M475.11,38.98c0-.08-.03-.14-.02-.19.24-1.19-.45-1.85-1.28-2.54-1.63-1.34-3.41-2.42-5.31-3.3-1.94-.9-3.94-1.64-6.07-2.02-.66-.12-1.33-.16-1.99-.26-.18-.03-.31-.03-.34.26-.09,1.04-.23,2.07-.35,3.1-.09.77-.19,1.54-.27,2.3-.01.1-.03.2-.11.22-.1.03-.15-.08-.21-.14-.56-.56-1.14-1.1-1.67-1.68-.25-.27-.37-.21-.6.01-.71.71-1.45,1.4-2.24,2.16-.19-1.29-.36-2.52-.56-3.75-.13-.8-.29-1.6-.36-2.42-.02-.27-.23-.16-.34-.15-1.21.12-2.39.36-3.54.74-2.52.85-4.84,2.09-7.04,3.57-1.08.73-2.08,1.59-3.05,2.47-.29.26-.4.53-.37.91.03.28,0,.57,0,.9-.74-.33-1.45-.63-2.15-.95-.52-.24-1.03-.49-1.55-.72-.23-.1-.25-.17-.07-.37,1.93-2.18,4.13-4.04,6.62-5.55,2.54-1.54,5.23-2.69,8.12-3.38,1.3-.31,2.61-.53,3.94-.65,1.16-.1,2.31-.23,3.47-.16,1.98.13,3.96.31,5.91.79,1.94.48,3.82,1.11,5.64,1.92,2,.89,3.84,2.04,5.57,3.35,1.36,1.04,2.63,2.19,3.73,3.52.16.19.12.26-.08.36-1.13.56-2.24,1.15-3.44,1.65Z"/><path class="cls-2" d="M468.43,26.41c0,.9-.7,1.59-1.6,1.61-.82.01-1.53-.65-1.58-1.59-.05-.84.76-1.64,1.61-1.61.75.03,1.63.64,1.58,1.59Z"/><path class="cls-2" d="M470.83,26.55c.89-.02,1.6.76,1.62,1.6.01.81-.78,1.62-1.63,1.58-.78-.04-1.56-.59-1.58-1.59-.01-.84.79-1.69,1.59-1.59Z"/><path class="cls-2" d="M436.13,31.03c.9,0,1.64.72,1.62,1.58-.02.89-.79,1.64-1.61,1.6-.93-.04-1.53-.65-1.57-1.59-.04-.92.82-1.64,1.56-1.59Z"/><path class="cls-2" d="M479.57,32.77c.09.83-.78,1.64-1.49,1.63-1.03-.02-1.64-.79-1.69-1.66-.05-.86.75-1.52,1.67-1.54.73-.02,1.61.71,1.51,1.57Z"/><path class="cls-2" d="M448.25,26.55c0,.92-.62,1.57-1.51,1.55-1.08-.02-1.58-.67-1.67-1.54-.09-.79.81-1.66,1.65-1.65.76,0,1.67.79,1.52,1.63Z"/><path class="cls-2" d="M473.18,30.13c-.16-.78.71-1.59,1.49-1.58.76.01,1.64.65,1.63,1.56,0,.86-.78,1.63-1.63,1.65-.72.02-1.64-.83-1.5-1.63Z"/><path class="cls-2" d="M442.99,26.64c1.01-.05,1.58.73,1.6,1.56.02.79-.78,1.66-1.54,1.62-.88-.05-1.69-.77-1.66-1.69.03-.82.72-1.49,1.59-1.49Z"/><path class="cls-2" d="M462.72,23.82c.86-.07,1.57.66,1.6,1.53.03.79-.85,1.71-1.61,1.63-.9-.09-1.57-.68-1.59-1.68-.01-.74.72-1.57,1.6-1.49Z"/><path class="cls-2" d="M441.04,30.4c0,.94-.75,1.61-1.54,1.62-.81.01-1.57-.76-1.58-1.63,0-.79.78-1.57,1.57-1.57.82,0,1.63.8,1.55,1.59Z"/><path class="cls-2" d="M452.27,25.3c.05.84-.65,1.6-1.55,1.6-.89,0-1.56-.74-1.56-1.56,0-.88.61-1.53,1.44-1.54,1.04,0,1.66.56,1.67,1.49Z"/><path class="cls-2" d="M402.15,149.44v.98h-1.65v4.55h-1.16v-4.55h-1.66v-.98h4.48Z"/><path class="cls-2" d="M403.06,154.97v-5.53h1.15v2.11h2.15v-2.11h1.15v5.53h-1.15v-2.47h-2.15v2.47h-1.15Z"/><path class="cls-2" d="M412.95,150.42h-2.93v1.17h2.69v.96h-2.69v1.42h3.06v.99h-4.19v-5.53h4.05v.98Z"/><path class="cls-2" d="M421.52,153.35c-.1.32-.24.58-.43.79l.63.6-.6.63-.66-.63c-.2.12-.38.21-.53.26-.25.08-.54.12-.89.12-.72,0-1.32-.22-1.79-.64-.57-.52-.86-1.28-.86-2.28s.29-1.77.88-2.29c.48-.42,1.07-.63,1.78-.63s1.31.22,1.8.67c.56.52.84,1.24.84,2.17,0,.49-.06.9-.18,1.24ZM419.43,154.1c.07-.02.15-.05.26-.09l-.56-.53.59-.62.56.53c.09-.18.15-.34.18-.47.05-.2.08-.44.08-.71,0-.62-.13-1.1-.38-1.44-.25-.34-.62-.51-1.11-.51-.46,0-.82.16-1.1.49-.27.32-.41.81-.41,1.46,0,.76.2,1.3.58,1.63.25.21.56.32.91.32.13,0,.26-.02.38-.05Z"/><path class="cls-2" d="M422.83,149.44h1.17v3.4c0,.38.04.66.13.83.14.31.44.46.91.46s.77-.16.91-.46c.09-.18.13-.45.13-.83v-3.4h1.17v3.4c0,.59-.09,1.04-.27,1.37-.34.6-.99.9-1.94.9s-1.6-.3-1.95-.9c-.18-.33-.27-.79-.27-1.37v-3.4Z"/><path class="cls-2" d="M432.71,150.42h-2.93v1.17h2.69v.96h-2.69v1.42h3.06v.99h-4.19v-5.53h4.05v.98Z"/><path class="cls-2" d="M438.08,150.42h-2.93v1.17h2.69v.96h-2.69v1.42h3.06v.99h-4.19v-5.53h4.05v.98Z"/><path class="cls-2" d="M439.34,149.44h1.21l2.2,3.86v-3.86h1.08v5.53h-1.15l-2.25-3.92v3.92h-1.08v-5.53Z"/><path class="cls-2" d="M445.08,151.17c.26-.08.44-.21.54-.39.05-.11.08-.22.07-.33h-.62v-.99h1.1v.79c0,.38-.09.68-.28.89-.19.22-.46.36-.8.42v-.39Z"/><path class="cls-2" d="M448.36,153.26c.04.25.11.44.21.57.19.23.52.34.98.34.28,0,.5-.03.68-.09.33-.11.49-.33.49-.64,0-.18-.08-.32-.24-.42-.16-.1-.42-.18-.77-.26l-.6-.13c-.59-.13-.99-.27-1.21-.42-.37-.25-.56-.65-.56-1.2,0-.5.18-.91.55-1.23.36-.33.9-.49,1.61-.49.59,0,1.09.15,1.51.46.42.31.63.76.66,1.34h-1.11c-.02-.33-.17-.57-.45-.71-.18-.09-.41-.14-.69-.14-.31,0-.55.06-.73.18s-.27.29-.27.5c0,.2.09.35.27.44.12.07.36.14.73.23l.97.23c.42.1.74.23.96.4.33.26.49.64.49,1.13s-.2.92-.59,1.26c-.39.33-.94.5-1.65.5s-1.3-.16-1.72-.49-.63-.78-.63-1.36h1.1Z"/><path class="cls-2" d="M456.58,149.44h1.31l1.96,5.53h-1.25l-.37-1.14h-2.04l-.38,1.14h-1.21l1.97-5.53ZM456.5,152.88h1.42l-.7-2.18-.72,2.18Z"/><path class="cls-2" d="M461.12,149.44l.73,3.17.16.88.16-.86.62-3.18h1.22l.66,3.17.17.88.17-.85.74-3.2h1.18l-1.56,5.53h-1.11l-.67-3.23-.2-1.07-.2,1.07-.67,3.23h-1.07l-1.57-5.53h1.23Z"/><path class="cls-2" d="M469.03,149.44h1.31l1.96,5.53h-1.25l-.37-1.14h-2.04l-.38,1.14h-1.21l1.97-5.53ZM468.95,152.88h1.42l-.7-2.18-.72,2.18Z"/><path class="cls-2" d="M476.78,149.58c.2.09.38.22.52.39.12.14.21.29.28.46.07.17.1.36.1.58,0,.26-.07.52-.2.77-.13.25-.35.43-.66.54.25.1.44.25.54.44.11.19.16.48.16.86v.37c0,.25,0,.42.03.51.03.14.1.25.21.31v.14h-1.28c-.04-.12-.06-.22-.08-.3-.03-.15-.05-.31-.05-.48v-.51c-.01-.35-.07-.59-.19-.7-.12-.12-.34-.18-.66-.18h-1.13v2.17h-1.13v-5.53h2.64c.38,0,.67.06.87.14ZM474.39,150.4v1.48h1.24c.25,0,.43-.03.55-.09.22-.11.33-.31.33-.62,0-.34-.1-.56-.32-.68-.12-.07-.3-.1-.53-.1h-1.28Z"/><path class="cls-2" d="M482.27,149.56c.39.13.7.36.94.7.19.27.32.57.39.89.07.32.11.63.11.92,0,.73-.15,1.36-.44,1.87-.4.69-1.02,1.03-1.85,1.03h-2.38v-5.53h2.38c.34,0,.63.05.86.12ZM480.15,150.4v3.61h1.07c.55,0,.93-.27,1.14-.81.12-.3.18-.65.18-1.05,0-.56-.09-.99-.26-1.3-.18-.3-.53-.45-1.05-.45h-1.07Z"/><path class="cls-2" d="M485.66,153.26c.04.25.11.44.21.57.19.23.52.34.98.34.28,0,.5-.03.68-.09.33-.11.49-.33.49-.64,0-.18-.08-.32-.24-.42-.16-.1-.42-.18-.77-.26l-.6-.13c-.59-.13-.99-.27-1.21-.42-.37-.25-.56-.65-.56-1.2,0-.5.18-.91.55-1.23.36-.33.9-.49,1.61-.49.59,0,1.09.15,1.51.46.42.31.63.76.66,1.34h-1.11c-.02-.33-.17-.57-.45-.71-.18-.09-.41-.14-.69-.14-.31,0-.55.06-.73.18s-.27.29-.27.5c0,.2.09.35.27.44.12.07.36.14.73.23l.97.23c.42.1.74.23.96.4.33.26.49.64.49,1.13s-.2.92-.59,1.26c-.39.33-.94.5-1.65.5s-1.3-.16-1.72-.49-.63-.78-.63-1.36h1.1Z"/><path class="cls-2" d="M407.33,157.92h3.94v.97h-2.79v1.27h2.45v.96h-2.45v2.32h-1.15v-5.52Z"/><path class="cls-2" d="M416.52,162.95c-.42.43-1.02.64-1.81.64s-1.39-.22-1.81-.64c-.56-.53-.84-1.29-.84-2.28s.28-1.77.84-2.28c.42-.43,1.02-.65,1.81-.65s1.39.22,1.81.65c.56.51.84,1.27.84,2.28s-.28,1.75-.84,2.28ZM415.8,162.11c.27-.34.4-.82.4-1.44s-.13-1.1-.4-1.44c-.27-.34-.63-.51-1.09-.51s-.82.17-1.1.51-.41.82-.41,1.44.14,1.1.41,1.44.64.51,1.1.51.82-.17,1.09-.51Z"/><path class="cls-2" d="M422.03,158.06c.2.09.38.22.52.39.12.14.21.29.28.46.07.17.1.36.1.58,0,.26-.07.52-.2.77-.13.25-.35.43-.66.54.25.1.44.25.54.44.11.19.16.48.16.86v.37c0,.25,0,.42.03.51.03.14.1.25.21.31v.14h-1.28c-.04-.12-.06-.22-.08-.3-.03-.15-.05-.31-.05-.48v-.51c-.01-.35-.07-.59-.19-.7-.12-.12-.34-.18-.66-.18h-1.13v2.17h-1.13v-5.53h2.64c.38,0,.67.06.87.14ZM419.64,158.87v1.48h1.24c.25,0,.43-.03.55-.09.22-.11.33-.31.33-.62,0-.34-.1-.56-.32-.68-.12-.07-.3-.1-.53-.1h-1.28Z"/><path class="cls-2" d="M430.74,158.89h-2.93v1.17h2.69v.96h-2.69v1.42h3.06v.99h-4.19v-5.53h4.05v.98Z"/><path class="cls-2" d="M432.01,157.91h1.21l2.2,3.86v-3.86h1.08v5.53h-1.15l-2.25-3.92v3.92h-1.08v-5.53Z"/><path class="cls-2" d="M441.83,157.91v.98h-1.65v4.55h-1.16v-4.55h-1.66v-.98h4.48Z"/><path class="cls-2" d="M446.84,158.89h-2.93v1.17h2.69v.96h-2.69v1.42h3.06v.99h-4.19v-5.53h4.05v.98Z"/><path class="cls-2" d="M451.67,158.06c.2.09.38.22.52.39.12.14.21.29.28.46.07.17.1.36.1.58,0,.26-.07.52-.2.77-.13.25-.35.43-.66.54.25.1.44.25.54.44.11.19.16.48.16.86v.37c0,.25,0,.42.03.51.03.14.1.25.21.31v.14h-1.28c-.04-.12-.06-.22-.08-.3-.03-.15-.05-.31-.05-.48v-.51c-.01-.35-.07-.59-.19-.7-.12-.12-.34-.18-.66-.18h-1.13v2.17h-1.13v-5.53h2.64c.38,0,.67.06.87.14ZM449.28,158.87v1.48h1.24c.25,0,.43-.03.55-.09.22-.11.33-.31.33-.62,0-.34-.1-.56-.32-.68-.12-.07-.3-.1-.53-.1h-1.28Z"/><path class="cls-2" d="M457.63,161.05c-.32.27-.79.4-1.39.4h-1.15v1.99h-1.15v-5.53h2.37c.55,0,.98.14,1.31.43s.49.73.49,1.32c0,.65-.16,1.11-.49,1.38ZM456.75,159.06c-.15-.12-.35-.18-.62-.18h-1.04v1.63h1.04c.26,0,.47-.07.62-.2.15-.13.22-.34.22-.63s-.07-.49-.22-.62Z"/><path class="cls-2" d="M462.83,158.06c.2.09.38.22.52.39.12.14.21.29.28.46.07.17.1.36.1.58,0,.26-.07.52-.2.77-.13.25-.35.43-.66.54.25.1.44.25.54.44.11.19.16.48.16.86v.37c0,.25,0,.42.03.51.03.14.1.25.21.31v.14h-1.28c-.04-.12-.06-.22-.08-.3-.03-.15-.05-.31-.05-.48v-.51c-.01-.35-.07-.59-.19-.7-.12-.12-.34-.18-.66-.18h-1.13v2.17h-1.13v-5.53h2.64c.38,0,.67.06.87.14ZM460.44,158.87v1.48h1.24c.25,0,.43-.03.55-.09.22-.11.33-.31.33-.62,0-.34-.1-.56-.32-.68-.12-.07-.3-.1-.53-.1h-1.28Z"/><path class="cls-2" d="M466.13,163.44h-1.15v-5.53h1.15v5.53Z"/><path class="cls-2" d="M468.29,161.73c.04.25.11.44.21.57.19.23.52.34.98.34.28,0,.5-.03.68-.09.33-.11.49-.33.49-.64,0-.18-.08-.32-.24-.42-.16-.1-.42-.18-.77-.26l-.6-.13c-.59-.13-.99-.27-1.21-.42-.37-.25-.56-.65-.56-1.2,0-.5.18-.91.55-1.23.36-.33.9-.49,1.61-.49.59,0,1.09.15,1.51.46.42.31.63.76.66,1.34h-1.11c-.02-.33-.17-.57-.45-.71-.18-.09-.41-.14-.69-.14-.31,0-.55.06-.73.18s-.27.29-.27.5c0,.2.09.35.27.44.12.07.36.14.73.23l.97.23c.42.1.74.23.96.4.33.26.49.64.49,1.13s-.2.92-.59,1.26c-.39.33-.94.5-1.65.5s-1.3-.16-1.72-.49-.63-.78-.63-1.36h1.1Z"/><path class="cls-2" d="M476.91,158.89h-2.93v1.17h2.69v.96h-2.69v1.42h3.06v.99h-4.19v-5.53h4.05v.98Z"/><path class="cls-2" d="M478.48,159.51h1.14v1.12h-1.14v-1.12ZM478.48,162.32h1.14v1.12h-1.14v-1.12Z"/><path class="cls-2" d="M397.58,171.79h-1.15v-5.53h1.15v5.53Z"/><path class="cls-2" d="M398.88,166.26h1.21l2.2,3.86v-3.86h1.08v5.53h-1.15l-2.25-3.92v3.92h-1.08v-5.53Z"/><path class="cls-2" d="M408.71,166.26v.98h-1.65v4.55h-1.16v-4.55h-1.66v-.98h4.48Z"/><path class="cls-2" d="M413.72,167.24h-2.93v1.17h2.69v.96h-2.69v1.42h3.06v.99h-4.19v-5.53h4.05v.98Z"/><path class="cls-2" d="M418.54,166.4c.2.09.38.22.52.39.12.14.21.29.28.46.07.17.1.36.1.58,0,.26-.07.52-.2.77-.13.25-.35.43-.66.54.25.1.44.25.54.44.11.19.16.48.16.86v.37c0,.25,0,.42.03.51.03.14.1.25.21.31v.14h-1.28c-.04-.12-.06-.22-.08-.3-.03-.15-.05-.31-.05-.48v-.51c-.01-.35-.07-.59-.19-.7-.12-.12-.34-.18-.66-.18h-1.13v2.17h-1.13v-5.53h2.64c.38,0,.67.06.87.14ZM416.16,167.22v1.48h1.24c.25,0,.43-.03.55-.09.22-.11.33-.31.33-.62,0-.34-.1-.56-.32-.68-.12-.07-.3-.1-.53-.1h-1.28Z"/><path class="cls-2" d="M420.78,166.26h1.21l2.2,3.86v-3.86h1.08v5.53h-1.15l-2.25-3.92v3.92h-1.08v-5.53Z"/><path class="cls-2" d="M428.17,166.26h1.31l1.96,5.53h-1.25l-.37-1.14h-2.04l-.38,1.14h-1.21l1.97-5.53ZM428.09,169.7h1.42l-.7-2.18-.72,2.18Z"/><path class="cls-2" d="M435.83,166.26v.98h-1.65v4.55h-1.16v-4.55h-1.66v-.98h4.48Z"/><path class="cls-2" d="M437.81,171.79h-1.15v-5.53h1.15v5.53Z"/><path class="cls-2" d="M443.39,171.3c-.42.43-1.02.64-1.81.64s-1.39-.22-1.81-.64c-.56-.53-.84-1.29-.84-2.28s.28-1.77.84-2.28c.42-.43,1.02-.65,1.81-.65s1.39.22,1.81.65c.56.51.84,1.27.84,2.28s-.28,1.75-.84,2.28ZM442.67,170.46c.27-.34.4-.82.4-1.44s-.13-1.1-.4-1.44c-.27-.34-.63-.51-1.09-.51s-.82.17-1.1.51-.41.82-.41,1.44.14,1.1.41,1.44.64.51,1.1.51.82-.17,1.09-.51Z"/><path class="cls-2" d="M445.33,166.26h1.21l2.2,3.86v-3.86h1.08v5.53h-1.15l-2.25-3.92v3.92h-1.08v-5.53Z"/><path class="cls-2" d="M452.73,166.26h1.31l1.96,5.53h-1.25l-.37-1.14h-2.04l-.38,1.14h-1.21l1.97-5.53ZM452.65,169.7h1.42l-.7-2.18-.72,2.18Z"/><path class="cls-2" d="M456.94,166.26h1.16v4.53h2.76v.99h-3.92v-5.53Z"/><path class="cls-2" d="M468.14,166.26v.98h-1.65v4.55h-1.16v-4.55h-1.66v-.98h4.48Z"/><path class="cls-2" d="M472.6,166.4c.2.09.38.22.52.39.12.14.21.29.28.46.07.17.1.36.1.58,0,.26-.07.52-.2.77-.13.25-.35.43-.66.54.25.1.44.25.54.44.11.19.16.48.16.86v.37c0,.25,0,.42.03.51.03.14.1.25.21.31v.14h-1.28c-.04-.12-.06-.22-.08-.3-.03-.15-.05-.31-.05-.48v-.51c-.01-.35-.07-.59-.19-.7-.12-.12-.34-.18-.66-.18h-1.13v2.17h-1.13v-5.53h2.64c.38,0,.67.06.87.14ZM470.21,167.22v1.48h1.24c.25,0,.43-.03.55-.09.22-.11.33-.31.33-.62,0-.34-.1-.56-.32-.68-.12-.07-.3-.1-.53-.1h-1.28Z"/><path class="cls-2" d="M476.43,166.26h1.31l1.96,5.53h-1.25l-.37-1.14h-2.04l-.38,1.14h-1.21l1.97-5.53ZM476.35,169.7h1.42l-.7-2.18-.72,2.18Z"/><path class="cls-2" d="M483.88,166.38c.39.13.7.36.94.7.19.27.32.57.39.89.07.32.11.63.11.92,0,.73-.15,1.36-.44,1.87-.4.69-1.02,1.03-1.85,1.03h-2.38v-5.53h2.38c.34,0,.63.05.86.12ZM481.76,167.22v3.61h1.07c.55,0,.93-.27,1.14-.81.12-.3.18-.65.18-1.05,0-.56-.09-.99-.26-1.3-.18-.3-.53-.45-1.05-.45h-1.07Z"/><path class="cls-2" d="M490.52,167.24h-2.93v1.17h2.69v.96h-2.69v1.42h3.06v.99h-4.19v-5.53h4.05v.98Z"/><path class="cls-2" d="M435.03,178.97c.15-.36.51-.75,1.08-1.15.49-.35.81-.6.96-.76.22-.24.33-.5.33-.78,0-.23-.06-.42-.19-.57-.13-.15-.31-.23-.55-.23-.32,0-.55.12-.66.36-.07.14-.11.36-.12.67h-1.04c.02-.46.1-.84.25-1.12.29-.54.79-.81,1.52-.81.58,0,1.03.16,1.37.48.34.32.51.74.51,1.27,0,.4-.12.76-.36,1.07-.16.21-.42.44-.78.69l-.43.3c-.27.19-.45.33-.55.41-.1.08-.18.18-.25.3h2.37v.94h-3.72c0-.39.09-.75.25-1.07Z"/><path class="cls-2" d="M442.63,175.29c.28.49.42,1.18.42,2.08s-.14,1.59-.42,2.07c-.28.49-.76.73-1.46.73s-1.18-.24-1.46-.73c-.28-.49-.42-1.18-.42-2.07s.14-1.59.42-2.08c.28-.49.76-.73,1.46-.73s1.18.24,1.46.73ZM440.55,178.8c.1.33.31.5.63.5s.53-.17.62-.5c.1-.33.15-.81.15-1.43,0-.66-.05-1.14-.15-1.46-.1-.31-.31-.47-.62-.47s-.53.16-.63.47c-.1.32-.15.8-.15,1.46s.05,1.1.15,1.43Z"/><path class="cls-2" d="M444.07,178.97c.15-.36.51-.75,1.08-1.15.49-.35.81-.6.96-.76.22-.24.33-.5.33-.78,0-.23-.06-.42-.19-.57-.13-.15-.31-.23-.55-.23-.32,0-.55.12-.66.36-.07.14-.11.36-.12.67h-1.04c.02-.46.1-.84.25-1.12.29-.54.79-.81,1.52-.81.58,0,1.03.16,1.37.48.34.32.51.74.51,1.27,0,.4-.12.76-.36,1.07-.16.21-.42.44-.78.69l-.43.3c-.27.19-.45.33-.55.41-.1.08-.18.18-.25.3h2.37v.94h-3.72c0-.39.09-.75.25-1.07Z"/><path class="cls-2" d="M451.67,175.29c.28.49.42,1.18.42,2.08s-.14,1.59-.42,2.07c-.28.49-.76.73-1.46.73s-1.18-.24-1.46-.73c-.28-.49-.42-1.18-.42-2.07s.14-1.59.42-2.08c.28-.49.76-.73,1.46-.73s1.18.24,1.46.73ZM449.58,178.8c.1.33.31.5.63.5s.53-.17.62-.5c.1-.33.15-.81.15-1.43,0-.66-.05-1.14-.15-1.46-.1-.31-.31-.47-.62-.47s-.53.16-.63.47c-.1.32-.15.8-.15,1.46s.05,1.1.15,1.43Z"/></svg>