<?xml version="1.0" encoding="utf-8"?>
<!-- Generator: Adobe Illustrator 28.1.0, SVG Export Plug-In . SVG Version: 6.00 Build 0)  -->
<svg version="1.1" id="Layer_1" xmlns="http://www.w3.org/2000/svg" xmlns:xlink="http://www.w3.org/1999/xlink" x="0px" y="0px"
	 viewBox="0 0 274 568" style="enable-background:new 0 0 274 568;" xml:space="preserve">
<style type="text/css">
	.st0{fill:#383C3F;}
	.st1{fill:#FFFFFF;filter:url(#Adobe_OpacityMaskFilter);}
	.st2{mask:url(#a_00000070806496309263938510000007412943492428027787_);}
	.st3{fill-rule:evenodd;clip-rule:evenodd;fill:#8EA50B;}
	.st4{fill-rule:evenodd;clip-rule:evenodd;fill:#E56E02;}
	.st5{fill:none;stroke:#FFFFFF;stroke-width:5;stroke-linecap:round;stroke-linejoin:bevel;}
	.st6{fill:#EDB000;}
</style>
<path class="st0" d="M10,0h254c5.5,0,10,4.5,10,10v548c0,5.5-4.5,10-10,10H10c-5.5,0-10-4.5-10-10V10C0,4.5,4.5,0,10,0z"/>
<defs>
	<filter id="Adobe_OpacityMaskFilter" filterUnits="userSpaceOnUse" x="-69.1" y="328.5" width="369.4" height="302.8">
		<feColorMatrix  type="matrix" values="1 0 0 0 0  0 1 0 0 0  0 0 1 0 0  0 0 0 1 0"/>
	</filter>
</defs>
<mask maskUnits="userSpaceOnUse" x="-69.1" y="328.5" width="369.4" height="302.8" id="a_00000070806496309263938510000007412943492428027787_">
	<path class="st1" d="M10,0h254c5.5,0,10,4.5,10,10v548c0,5.5-4.5,10-10,10H10c-5.5,0-10-4.5-10-10V10C0,4.5,4.5,0,10,0z"/>
</mask>
<g class="st2">
	<path class="st3" d="M-42.4,527.8c37.9,89.4,203.5,141.9,246.7,69.4c43.2-72.5-66.1-85.7-104.7-160.6
		C60.9,361.7,30.9,314.9-24.9,332C-80.7,349.1-80.3,438.3-42.4,527.8L-42.4,527.8z"/>
	<path class="st4" d="M233.1,601.2c60.7-28.3,92.8-143.5,41.9-171.5c-51-28-57.4,47.6-108.1,76c-50.7,28.4-82.1,50.2-69,88.2
		C111,631.9,172.4,629.4,233.1,601.2z"/>
	<path class="st5" d="M165.3,469.1l10.6-10.8 M209.5,474.6L197,464.1 M187.6,489l-6.9,14.8"/>
	<path class="st6" d="M0.3,546.9c37,0,67-30,67-67s-30-67-67-67s-67,30-67,67S-36.7,546.9,0.3,546.9z"/>
</g>
</svg>
