<?xml version="1.0" encoding="utf-8"?>
<!-- Generator: Adobe Illustrator 28.2.0, SVG Export Plug-In . SVG Version: 6.00 Build 0)  -->
<svg version="1.1" id="Layer_1" xmlns="http://www.w3.org/2000/svg" xmlns:xlink="http://www.w3.org/1999/xlink" x="0px" y="0px"
	 viewBox="0 0 375 172" style="enable-background:new 0 0 375 172;" xml:space="preserve">
<style type="text/css">
	.st0{fill-rule:evenodd;clip-rule:evenodd;fill:#383C3F;}
	.st1{fill-rule:evenodd;clip-rule:evenodd;fill:#8EA50B;}
	.st2{fill-rule:evenodd;clip-rule:evenodd;fill:#EDB000;}
	.st3{fill-rule:evenodd;clip-rule:evenodd;fill:#E56E02;}
	.st4{fill:none;stroke:#FFFFFF;stroke-width:5;stroke-linecap:round;stroke-linejoin:bevel;}
</style>
<g>
	<g>
		<path id="a_00000049921965305616313880000009795387384849411234_" class="st0" d="M0,0h375v172H0V0z"/>
	</g>
	<g>
		<g transform="translate(-151.029 -133.957)">
			<path class="st1" d="M79.5,349.6C134,478.2,372,553.7,434.1,449.5s-95-123.2-150.6-231C228,110.7,184.8,43.5,104.5,68
				C24.4,92.6,25,221,79.5,349.6z"/>
			<ellipse class="st2" cx="129.9" cy="258.7" rx="96.3" ry="96.4"/>
			<path class="st3" d="M464.9,433.1c87.3-40.7,133.6-206.5,60.3-246.8s-82.6,68.5-155.5,109.3c-72.9,40.9-118.2,72.2-99.3,127
				C289.1,477.4,377.6,473.8,464.9,433.1z"/>
			<g>
				<path class="st4" d="M367.3,243.1l15.3-15.5 M430.9,251l-18-15.1 M399.4,271.8l-9.9,21.3"/>
			</g>
		</g>
	</g>
</g>
</svg>
