<?xml version="1.0" encoding="utf-8"?>
<!-- Generator: Adobe Illustrator 28.1.0, SVG Export Plug-In . SVG Version: 6.00 Build 0)  -->
<svg version="1.1" id="Layer_1" xmlns="http://www.w3.org/2000/svg" xmlns:xlink="http://www.w3.org/1999/xlink" x="0px" y="0px"
	 viewBox="0 0 375 172" style="enable-background:new 0 0 375 172;" xml:space="preserve">
<style type="text/css">
	.st0{fill-rule:evenodd;clip-rule:evenodd;fill:#383C3F;}
	.st1{filter:url(#Adobe_OpacityMaskFilter);}
	.st2{fill-rule:evenodd;clip-rule:evenodd;fill:#FFFFFF;}
	.st3{mask:url(#b_00000068664243517576422170000001655216234515778714_);}
	.st4{fill-rule:evenodd;clip-rule:evenodd;fill:#8EA50B;}
	.st5{fill-rule:evenodd;clip-rule:evenodd;fill:#EDB000;}
	.st6{fill-rule:evenodd;clip-rule:evenodd;fill:#E56E02;}
	.st7{fill:none;stroke:#FFFFFF;stroke-width:5;stroke-linecap:round;stroke-linejoin:bevel;}
</style>
<g>
	<g>
		<path id="a_00000049921965305616313880000009795387384849411234_" class="st0" d="M0,0h375v172H0V0z"/>
	</g>
	<defs>
		<filter id="Adobe_OpacityMaskFilter" filterUnits="userSpaceOnUse" x="-117.5" y="-71" width="528" height="435.5">
			<feColorMatrix  type="matrix" values="1 0 0 0 0  0 1 0 0 0  0 0 1 0 0  0 0 0 1 0"/>
		</filter>
	</defs>
	
		<mask maskUnits="userSpaceOnUse" x="-117.5" y="-71" width="528" height="435.5" id="b_00000068664243517576422170000001655216234515778714_">
		<g class="st1">
			<path id="a_00000093895472384053370340000002624459757367966388_" class="st2" d="M0,0h375v172H0V0z"/>
		</g>
	</mask>
	<g class="st3">
		<g transform="translate(-151.029 -133.957)">
			<path class="st4" d="M79.5,349.6c54.5,128.6,292.5,204.1,354.6,99.9s-95-123.2-150.6-231c-55.5-107.8-98.7-175-179-150.5
				C24.4,92.6,25,221,79.5,349.6z"/>
			<ellipse class="st5" cx="129.9" cy="258.7" rx="96.3" ry="96.4"/>
			<path class="st6" d="M464.9,433.1c87.3-40.7,133.6-206.5,60.3-246.8c-73.3-40.3-82.6,68.5-155.5,109.3
				c-72.9,40.9-118.2,72.2-99.3,127C289.1,477.4,377.6,473.8,464.9,433.1z"/>
			<g>
				<path class="st7" d="M367.3,243.1l15.3-15.5 M430.9,251l-18-15.1 M399.4,271.8l-9.9,21.3"/>
			</g>
		</g>
	</g>
</g>
</svg>
