<?xml version="1.0" encoding="UTF-8"?><svg id="Layer_1" xmlns="http://www.w3.org/2000/svg" viewBox="0 0 375 172"><defs><style>.cls-1{fill:#4e66ae;}.cls-1,.cls-2{opacity:.46;}.cls-1,.cls-2,.cls-3{stroke-width:0px;}.cls-2{fill:#e94857;}.cls-3{fill:#14213d;fill-rule:evenodd;}</style></defs><path id="a" class="cls-3" d="M0,0h375v172H0V0Z"/><path class="cls-2" d="M302.08,18.84l59.39-12.56c3.51-.74,6.69,2.74,5.46,6.17l-18.82,57.72-18.82,57.72c-1.23,3.44-5.67,4.37-7.95,1.68l-40.81-45.11-40.57-45.16c-2.51-2.64-1.02-7.11,2.49-7.86l59.63-12.61Z"/><path class="cls-1" d="M244.5,153.16l-59.39,12.56c-3.51.74-6.69-2.74-5.46-6.17l18.82-57.72,18.82-57.72c1.23-3.44,5.67-4.37,7.95-1.68l40.57,45.16,40.57,45.16c2.51,2.64,1.02,7.11-2.49,7.86l-59.39,12.56Z"/></svg>