<?xml version="1.0" encoding="UTF-8"?><svg id="Layer_1" xmlns="http://www.w3.org/2000/svg" viewBox="0 0 466.88 56"><defs><style>.cls-1{fill:#e94857;}.cls-1,.cls-2,.cls-3{stroke-width:0px;}.cls-2{fill:#4e66ae;}.cls-3{fill:#fff;}</style></defs><path class="cls-1" d="M62.58,0h25.4c1.5,0,2.5,1.7,1.7,3l-12.7,22-12.7,22c-.8,1.3-2.7,1.3-3.4,0l-12.8-22L35.38,3c-.8-1.3.2-3,1.7-3h25.5Z"/><path class="cls-2" d="M27.38,50H1.98c-1.5,0-2.5-1.7-1.7-3l12.7-22L25.68,3c.8-1.3,2.7-1.3,3.4,0l12.7,22,12.7,22c.8,1.3-.2,3-1.7,3h-25.4Z"/><path class="cls-3" d="M129.58,43.7v-15.2h-14v15.2h-8.6V7.4h8.7v13.7h14V7.4h8.7v36.3h-8.8Z"/><path class="cls-3" d="M155.88,44.5c-7.6,0-14-5.3-14-13.7s6.4-13.5,14-13.5,14,5.1,14,13.5-6.3,13.7-14,13.7ZM155.88,24.3c-3.9,0-5.9,3.2-5.9,6.5s2.1,6.6,6,6.6,6-3.3,6-6.6-2.2-6.5-6.1-6.5Z"/><path class="cls-3" d="M205.38,43.7v-13.9c0-2.9-.7-5.4-3.6-5.4s-4.2,2.7-4.2,5.5v13.8h-8.3v-14.5c0-2.9-1.1-4.8-3.6-4.8s-4.1,2.4-4.1,5.5v13.8h-8.3v-25.5h8v3.5h.1c1.2-2.2,3.7-4.3,7.5-4.3,3.6,0,6.2,1.6,7.6,4.4,1.7-2.7,4.3-4.4,8-4.4,6.8,0,9.2,5.6,9.2,10.5v15.8h-8.3Z"/><path class="cls-3" d="M242.88,33.3h-18.3c.3,2.8,3,4.8,6,4.8,2.6,0,4.5-1.1,5.6-2.7l5.8,3.7c-2.4,3.5-6.3,5.4-11.4,5.4-7.6,0-13.9-4.9-13.9-13.5s6-13.7,13.6-13.7,12.7,5.2,12.7,13.9c0,.7,0,1.4-.1,2.1ZM235.38,28c0-2.7-1.7-4.9-5-4.9s-5.5,2.3-5.7,4.9h10.7Z"/><path class="cls-3" d="M246.38,43.7V5h8.4v38.7h-8.4Z"/><path class="cls-3" d="M263.48,14.7c-2.7,0-4.8-2.1-4.8-4.6s2.1-4.6,4.8-4.6,4.8,2,4.8,4.6-2.2,4.6-4.8,4.6ZM259.38,43.7v-25.5h8.3v25.5h-8.3Z"/><path class="cls-3" d="M288.58,11.2c-.6-.2-1.5-.4-2.3-.4-3,0-3.7,2.5-3.7,4.8v2.6h5.6v6.3h-5.6v19.2h-8.3v-19.2h-4.6v-6.3h4.6v-2.5c0-6.3,2.4-11.7,10.8-11.7,1.4,0,2.9.2,4,.5l-.5,6.7Z"/><path class="cls-3" d="M297.88,24.5v9.7c0,2.4.8,3.6,3.1,3.6.8,0,1.8-.2,2.4-.4l.1,6.1c-1.1.4-3,.8-4.8.8-6.7,0-9-3.6-9-9.1v-10.7h-4v-6.3h4v-6.7h8.1v6.7h5.9v6.3h-5.8Z"/><path class="cls-3" d="M319.38,42h20.1v1.7h-22V7.4h21.3v1.7h-19.4v14.9h18.2v1.7h-18.2v16.3Z"/><path class="cls-3" d="M351.68,31.3l-8.3-11.3h2.3l7.1,9.9,7.1-9.9h2.3l-8.2,11.2,9.4,12.5h-2.4l-8.1-11.2-8.1,11.2h-2.3l9.2-12.4Z"/><path class="cls-3" d="M368.98,56h-1.9V20h1.9v5.7h.2c2-4.3,5.9-6.4,10-6.4,7.1,0,11.8,5.4,11.8,12.6s-4.8,12.5-11.8,12.5c-4,0-8.2-2.2-10-6.3h-.2v17.9ZM378.98,20.9c-5.8,0-10.1,5-10.1,11s4.3,10.9,10.1,10.9c6.2,0,10-5,10-10.9s-3.8-11-10-11Z"/><path class="cls-3" d="M394.68,31.7c0-7.2,5-12.3,11.3-12.3,7.3,0,11,5.6,11,11.5,0,.4-.1.8-.1,1.1h-20.4c0,5.5,3.5,10.8,9.9,10.8,3.6,0,6.3-1.6,8.3-4.2l1.3,1.1c-2.4,3.1-5.6,4.7-9.6,4.7-6.8,0-11.7-5.4-11.7-12.7ZM415.18,30.4c-.2-5.6-3.7-9.5-9.2-9.5-6.3,0-9.3,5.8-9.4,9.5h18.6Z"/><path class="cls-3" d="M422.08,25.8c0-1.4-.1-4.4-.2-5.7h1.8c.2,1.2.2,4,.2,5.5h.1c1.4-4.3,4.5-6.3,7.9-6.3.6,0,.9-.1,1.4.1l-.2,1.7c-.4-.1-.8-.1-1.2-.1-5.2,0-7.9,4.9-7.9,11v11.7h-1.9v-17.9h0Z"/><path class="cls-3" d="M448.38,21.6h-6.8v16.6c0,3.3,1.7,4.4,4,4.4,1,0,1.9-.2,2.7-.6l.2,1.6c-1,.4-2.1.6-3.2.6-3.3,0-5.5-1.9-5.5-5.7v-16.9h-5v-1.6h5v-6.9h1.9v6.9h6.8v1.6h-.1Z"/><path class="cls-3" d="M464.98,24c-1.4-2.1-3.4-3.1-6.1-3.1-2.5,0-5.7,1.3-5.7,4.8,0,2.8,1.9,3.9,6.3,5,4.3,1.1,7.4,2.6,7.4,6.7,0,4.7-3.8,7-8,7-3.5,0-6.6-1.3-8.6-4.1l1.5-1.1c1.6,2.3,4,3.6,7.1,3.6s6.2-1.7,6.2-5.2c0-3.8-3.8-4.7-7.4-5.6-4-1-6.3-2.7-6.3-6.3,0-4.3,3.8-6.4,7.5-6.4,3.3,0,5.8,1.3,7.4,3.7l-1.3,1Z"/></svg>